<?xml version="1.0" encoding="UTF-8" standalone="no"?>
<svg
   viewBox="0 0 460 460.00009"
   width="460"
   height="460.00006"
   version="1.1"
   id="svg38"
   sodipodi:docname="logo1attempt2.svg"
   xml:space="preserve"
   inkscape:version="1.4.2 (f4327f4, 2025-05-13)"
   xmlns:inkscape="http://www.inkscape.org/namespaces/inkscape"
   xmlns:sodipodi="http://sodipodi.sourceforge.net/DTD/sodipodi-0.dtd"
   xmlns="http://www.w3.org/2000/svg"
   xmlns:svg="http://www.w3.org/2000/svg"><sodipodi:namedview
     id="namedview38"
     pagecolor="#ffffff"
     bordercolor="#000000"
     borderopacity="0.25"
     inkscape:showpageshadow="false"
     inkscape:pageopacity="0.0"
     inkscape:pagecheckerboard="0"
     inkscape:deskcolor="#d1d1d1"
     showgrid="false"
     inkscape:zoom="0.7071068"
     inkscape:cx="330.92596"
     inkscape:cy="340.82546"
     inkscape:window-width="1440"
     inkscape:window-height="830"
     inkscape:window-x="-6"
     inkscape:window-y="-6"
     inkscape:window-maximized="1"
     inkscape:current-layer="g38"
     showborder="false"><inkscape:grid
       id="grid63"
       units="px"
       originx="-520"
       originy="-519.99997"
       spacingx="5.0000002"
       spacingy="5.0000002"
       empcolor="#0099e5"
       empopacity="0.30196078"
       color="#0099e5"
       opacity="0.14901961"
       empspacing="5"
       enabled="true"
       visible="false" /></sodipodi:namedview><desc
     id="desc1">logo1.dxf - scale = 1.000000, origin = (0.000000, 0.000000), method = manual</desc><defs
     id="defs4"><marker
       id="DistanceX"
       orient="auto"
       refX="0"
       refY="0"
       style="overflow:visible"><path
         d="M 3,-3 -3,3 M 0,-5 V 5"
         style="stroke:#000000;stroke-width:0.5"
         id="path1" /></marker><pattern
       id="Hatch"
       patternUnits="userSpaceOnUse"
       width="8"
       height="8"
       x="0"
       y="0"><path
         d="M8 4 l-4,4"
         stroke="#000000"
         stroke-width="0.25"
         linecap="square"
         id="path2" /><path
         d="M6 2 l-4,4"
         stroke="#000000"
         stroke-width="0.25"
         linecap="square"
         id="path3" /><path
         d="M4 0 l-4,4"
         stroke="#000000"
         stroke-width="0.25"
         linecap="square"
         id="path4" /></pattern><symbol
       id="*Model_Space" /><symbol
       id="*Paper_Space" /><symbol
       id="*Paper_Space0" /></defs><g
     inkscape:groupmode="layer"
     inkscape:label="0"
     id="g38"
     transform="translate(-520,-519.99994)"><path
       id="path61"
       style="fill:#005f73;fill-opacity:1;stroke:none;stroke-opacity:1"
       d="M 750,520 A 230,230 0 0 0 520,750 230,230 0 0 0 750,980 230,230 0 0 0 879.61523,940 H 750.21484 750 A 190,190 0 0 1 560,750 190,190 0 0 1 750,560 190,190 0 0 1 884.34375,615.66016 l 0.006,-0.01 c 0.0445,0.0445 0.0899,0.0888 0.13477,0.13281 7.82078,7.67799 20.3843,7.6337 28.15039,-0.13281 7.24101,-7.24062 7.76037,-18.64673 1.57617,-26.49609 a 230,230 0 0 0 -1.4961,-1.70703 A 230,230 0 0 0 750,520 Z" /><path
       id="path66"
       style="fill:#94d2bd;fill-opacity:1;stroke:none;stroke-opacity:1"
       d="m 750,600 a 150,150 0 0 0 -150,150 150,150 0 0 0 150,150 150,150 0 0 0 0.13477,0 h 174.2207 a 230,230 0 0 0 27.63476,-40 H 851.98047 750.05859 750 A 110,110 0 0 1 640,750 110,110 0 0 1 750,640 a 110,110 0 0 1 28.4707,3.74805 20,20 0 0 0 24.49414,-14.14258 20,20 0 0 0 -11.66601,-23.65235 20,20 0 0 0 -2.47656,-0.84179 A 150,150 0 0 0 750,600 Z" /><path
       id="path67"
       style="fill:#0a9396;fill-opacity:1;stroke:none;stroke-opacity:1"
       d="M 750,560 A 190,190 0 0 0 560,750 190,190 0 0 0 750,940 h 129.6152 a 230,230 0 0 0 44.7403,-40 H 866.6191 750.2031 750 A 150,150 0 0 1 600,750 150,150 0 0 1 750,600 a 150,150 0 0 1 75,20.0957 20,20 0 0 0 27.3203,-7.32031 20,20 0 0 0 -7.2695,-27.29101 A 190,190 0 0 0 750,560 Z" /><path
       id="path79-8"
       style="fill:#001219;fill-opacity:1;stroke:none;stroke-opacity:1"
       inkscape:transform-center-y="-7.5"
       d="m 270,170.34701 -42.77148,74.08398 A 110,110 0 0 0 275,255.34701 h 0.0586 44.01563 z"
       transform="translate(475,604.65299)" /><path
       style="fill:#001219;fill-opacity:1;stroke:none;stroke-opacity:1"
       d="M 764.2265,808.30121 795,754.99994 l 20.28312,35.1314 -30.7735,53.30127 z"
       id="path80" /><path
       style="fill:#001219;fill-opacity:1;stroke:none;stroke-opacity:1"
       d="M 850,729.99995 784.50938,843.43303 794.07422,860 h 130.98134 z"
       id="path82" /><path
       id="path87"
       style="fill:#ca6702;fill-opacity:1;stroke:none;stroke-opacity:1"
       inkscape:transform-center-x="173.35255"
       d="m 696.1875,654.0625 a 110,110 0 0 0 -55.25195,81.61719 L 863.5625,696.42578 A 37,37 0 0 1 863,690 a 37,37 0 0 1 0.5625,-6.42578 L 696.18945,654.0625 Z" /><path
       id="path94"
       style="fill:#ca6702;fill-opacity:1;stroke:none;stroke-opacity:1"
       inkscape:transform-center-x="-107.58349"
       inkscape:transform-center-y="-162.19851"
       d="m 930.1875,607.05859 -17.5332,48.17188 a 37,37 0 0 1 5.8457,2.72656 37,37 0 0 1 5.2832,3.69922 l 24.15625,-28.78711 A 230,230 0 0 0 930.1875,607.05859 Z" /><path
       id="path95"
       style="fill:#ee9b00;fill-opacity:1;stroke:none;stroke-opacity:1"
       inkscape:transform-center-x="-148.31368"
       inkscape:transform-center-y="-129.92241"
       d="m 947.93945,632.86719 -24.15625,28.78906 a 37,37 0 0 1 4.56055,4.56055 37,37 0 0 1 3.69922,5.2832 l 27.66015,-15.96875 a 230,230 0 0 0 -11.76367,-22.66406 z" /><path
       id="path96"
       style="fill:#ca6702;fill-opacity:1;stroke:none;stroke-opacity:1"
       inkscape:transform-center-x="-171.15502"
       inkscape:transform-center-y="-81.975747"
       d="M 959.70312,655.5293 932.04297,671.5 a 37,37 0 0 1 2.72656,5.8457 37,37 0 0 1 1.66797,6.23047 l 31.98242,-5.63867 a 230,230 0 0 0 -8.7168,-22.4082 z" /><path
       id="path97"
       style="fill:#ee9b00;fill-opacity:1;stroke:none;stroke-opacity:1"
       inkscape:transform-center-x="-173.35257"
       inkscape:transform-center-y="-1.1534951e-05"
       d="m 968.41797,677.93555 -31.98047,5.63867 A 37,37 0 0 1 937,690 a 37,37 0 0 1 -0.5625,6.42578 l 38.76367,6.83594 a 230,230 0 0 0 -6.7832,-25.32617 z" /><path
       id="path98"
       style="fill:#ca6702;fill-opacity:1;stroke:none;stroke-opacity:1"
       inkscape:transform-center-x="-171.15502"
       inkscape:transform-center-y="81.975744"
       d="m 936.4375,696.42383 a 37,37 0 0 1 -1.66797,6.23047 37,37 0 0 1 -2.72656,5.8457 l 47.52734,27.43945 a 230,230 0 0 0 -4.36914,-32.67968 z" /><path
       id="path99"
       style="fill:#ee9b00;fill-opacity:1;stroke:none;stroke-opacity:1"
       inkscape:transform-center-x="-148.31368"
       inkscape:transform-center-y="129.92241"
       d="m 932.04297,708.5 a 37,37 0 0 1 -3.69922,5.2832 37,37 0 0 1 -4.56055,4.56055 l 53.89844,64.23437 A 230,230 0 0 0 980,750 230,230 0 0 0 979.57031,735.93945 Z" /><path
       id="path100"
       style="fill:#ca6702;fill-opacity:1;stroke:none;stroke-opacity:1"
       inkscape:transform-center-x="-107.58349"
       inkscape:transform-center-y="162.19852"
       d="m 923.7832,718.34375 a 37,37 0 0 1 -5.2832,3.69922 37,37 0 0 1 -5.8457,2.72656 l 45.09961,123.91211 a 230,230 0 0 0 19.92773,-66.10547 z" /><path
       id="path101"
       style="fill:#ee9b00;fill-opacity:1;stroke:none;stroke-opacity:1"
       inkscape:transform-center-x="-53.877176"
       inkscape:transform-center-y="174.91107"
       d="m 912.65625,724.76758 c -2.02425,0.73695 -4.10899,1.29572 -6.23047,1.66992 -2.12147,0.3742 -4.27156,0.56242 -6.42578,0.5625 v 89.60249 L 925.05556,860 h 26.93467 c 2.02574,-3.71963 3.94835,-7.49451 5.76563,-11.32031 z"
       sodipodi:nodetypes="cscccccc" /><path
       id="path102"
       style="fill:#ca6702;fill-opacity:1;stroke:none;stroke-opacity:1"
       inkscape:transform-center-x="53.877186"
       inkscape:transform-center-y="174.91106"
       d="M 887.34375,724.76758 871.73823,767.65167 900,816.60249 V 727 c -2.15422,-8e-5 -4.30431,-0.1883 -6.42578,-0.5625 -2.12148,-0.3742 -4.20622,-0.93297 -6.23047,-1.66992 z"
       sodipodi:nodetypes="ccccsc" /><path
       id="path103"
       style="fill:#ee9b00;fill-opacity:1;stroke:none;stroke-opacity:1"
       inkscape:transform-center-x="107.5835"
       inkscape:transform-center-y="162.19849"
       d="m 876.2168,718.34375 -19.51736,23.25997 15.03879,26.04795 15.60747,-42.88214 c -2.02422,-0.73695 -3.98022,-1.64927 -5.8457,-2.72656 -1.86538,-1.07694 -3.63316,-2.31472 -5.2832,-3.69922 z"
       sodipodi:nodetypes="cccccc" /><path
       id="path104"
       style="fill:#ca6702;fill-opacity:1;stroke:none;stroke-opacity:1"
       inkscape:transform-center-x="148.31366"
       inkscape:transform-center-y="129.92239"
       d="M 867.95703,708.5 746.94397,778.3671 764.2265,808.30121 795,754.99994 815.28312,790.13134 850,729.99995 l 6.69944,11.60377 19.51736,-23.25997 c -1.65003,-1.38454 -3.17601,-2.91052 -4.56055,-4.56055 -1.3845,-1.65004 -2.62228,-3.41782 -3.69922,-5.2832 z"
       sodipodi:nodetypes="ccccccccsc" /><path
       id="path105"
       style="fill:#ee9b00;fill-opacity:1;stroke:none;stroke-opacity:1"
       inkscape:transform-center-x="171.155"
       inkscape:transform-center-y="81.975732"
       d="M 863.5625,696.42383 640.93555,735.67969 C 640.31232,740.42767 639.99981,745.21129 640,750 c -1.1e-4,27.24246 10.10877,53.51582 28.36914,73.73242 L 741.11221,781.73399 745,775 746.94397,778.3671 867.95703,708.5 c -1.07729,-1.86548 -1.98961,-3.82148 -2.72656,-5.8457 -0.73629,-2.02431 -1.2944,-4.10905 -1.66797,-6.23047 z"
       sodipodi:nodetypes="cccccccccc" /><path
       id="path107"
       style="fill:#ca6702;fill-opacity:1;stroke:none;stroke-opacity:1"
       d="m 741.11133,781.73438 -72.74219,41.99804 a 110,110 0 0 0 33.85938,25.35352 z" /><circle
       style="fill:#9b2226;fill-opacity:1;stroke:none;stroke-opacity:1"
       id="path84"
       cx="900"
       cy="689.99994"
       r="37" /><circle
       style="fill:none;fill-opacity:1;stroke:none;stroke-opacity:1"
       id="path77"
       cx="750"
       cy="749.99994"
       r="230" /><path
       id="circle109"
       style="fill:#ee9b00;fill-opacity:1;stroke:none;stroke-opacity:1"
       d="m 888.53516,566.40234 a 230,230 0 0 1 23.15234,20.15039 230,230 0 0 0 -23.15234,-20.15039 z m 26.34765,23.69141 c 5.44323,7.79883 4.71163,18.59734 -2.24804,25.55664 -3.52163,3.52182 -8.02974,5.45478 -12.63477,5.80078 V 653 a 37,37 0 0 1 12.65625,2.23242 l 17.5332,-48.17187 v -0.002 a 230,230 0 0 0 -15.30664,-16.96484 z" /><path
       id="path110"
       style="fill:#ca6702;fill-opacity:1;stroke:none;stroke-opacity:1"
       d="m 867.50195,600.70508 19.8418,54.52734 A 37,37 0 0 1 900,653 v -31.54883 c -5.55049,0.41727 -11.24107,-1.47145 -15.51562,-5.66797 -0.0449,-0.044 -0.0902,-0.0883 -0.13477,-0.13281 l -0.006,0.01 a 190,190 0 0 0 -16.8418,-14.95508 z" /><path
       id="path111"
       style="fill:#ee9b00;fill-opacity:1;stroke:none;stroke-opacity:1"
       d="m 845.52734,585.76953 c 9.18864,5.68828 12.19672,17.64706 6.79297,27.00586 -2.24869,3.8941 -5.74407,6.91678 -9.92187,8.58008 l 33.81836,40.30078 c 3.30598,-2.77379 7.07173,-4.94783 11.12695,-6.42383 l -19.8418,-54.52734 -0.002,-0.002 c -6.9668,-5.48445 -14.30897,-10.47451 -21.97266,-14.93359 z"
       sodipodi:nodetypes="ccccccccc" /><path
       id="path112"
       style="fill:#ca6702;fill-opacity:1;stroke:none;stroke-opacity:1"
       d="m 791.33203,605.96875 c -55.10937,45.375 -55.10937,45.375 0,0 z m -2.50976,-0.85742 c 9.25192,3.85164 16.73458,14.81351 14.14257,24.49414 -0.33171,1.23821 -0.7817,2.44166 -1.34375,3.59375 L 867.95703,671.5 c 2.15804,-3.73789 4.95344,-7.06938 8.25977,-9.84375 L 842.41992,621.34766 C 836.7282,623.62162 830.30805,623.16021 825,620.0957 814.39446,614.03333 804.89454,609.41788 788.82227,605.11133 Z"
       sodipodi:nodetypes="cccscccccc" /><path
       id="path113"
       style="fill:#ee9b00;fill-opacity:1;stroke:none;stroke-opacity:1"
       d="M 801.62109,633.19922 A 20,20 0 0 1 778.4707,643.74805 110,110 0 0 0 750,640 110,110 0 0 0 696.18945,654.06055 h -0.002 v 0.002 l 167.375,29.51367 A 37,37 0 0 1 867.95703,671.5 Z" /></g></svg>
