<?xml version="1.0" encoding="UTF-8" standalone="no"?>
<!-- Created with Inkscape (http://www.inkscape.org/) -->

<svg
   width="200mm"
   height="46.779316mm"
   viewBox="0 0 200 46.779316"
   version="1.1"
   id="svg1"
   inkscape:version="1.4.2 (f4327f4, 2025-05-13)"
   sodipodi:docname="waves.svg"
   inkscape:export-filename="waves.png"
   inkscape:export-xdpi="96"
   inkscape:export-ydpi="96"
   xmlns:inkscape="http://www.inkscape.org/namespaces/inkscape"
   xmlns:sodipodi="http://sodipodi.sourceforge.net/DTD/sodipodi-0.dtd"
   xmlns="http://www.w3.org/2000/svg"
   xmlns:svg="http://www.w3.org/2000/svg">
  <sodipodi:namedview
     id="namedview1"
     pagecolor="#ffffff"
     bordercolor="#000000"
     borderopacity="0.25"
     inkscape:showpageshadow="2"
     inkscape:pageopacity="0.0"
     inkscape:pagecheckerboard="0"
     inkscape:deskcolor="#d1d1d1"
     inkscape:document-units="mm"
     inkscape:zoom="0.52221046"
     inkscape:cx="492.13874"
     inkscape:cy="158.93975"
     inkscape:window-width="1440"
     inkscape:window-height="830"
     inkscape:window-x="-6"
     inkscape:window-y="-6"
     inkscape:window-maximized="1"
     inkscape:current-layer="layer1" />
  <defs
     id="defs1" />
  <g
     inkscape:label="Layer 1"
     inkscape:groupmode="layer"
     id="layer1"
     transform="translate(0,-53.220684)">
    <path
       id="path4-1"
       style="fill:#94d2bd;fill-opacity:1;stroke:none;stroke-width:0.264583;stroke-opacity:1"
       d="m 73.223201,53.388189 c -8.028212,-0.34303 -15.910752,1.57534 -23.647134,5.75572 5.015084,1.28124 10.085578,3.42108 15.211475,6.41925 1.995516,1.26246 4.001525,2.36734 6.016687,3.32537 8.450702,-0.10072 17.061832,-2.68175 25.837181,-7.81451 0.14093,-0.0892 0.28169,-0.17746 0.42271,-0.265099 -8.085169,-4.613481 -16.031839,-7.087061 -23.840919,-7.420731 z m 102.430439,0.58911 c -7.68835,-0.49821 -15.2422,1.12647 -22.71902,5.16661 5.01504,1.28124 10.08561,3.4211 15.21147,6.41925 1.98343,1.25482 3.97715,2.35168 5.98,3.30574 8.1993,-0.0903 16.54777,-2.49406 25.05273,-7.32204 -8.01405,-4.45052 -15.83683,-7.07135 -23.52518,-7.56956 z m -24.08483,8.88938 c 1.08481,0.59381 2.16661,1.23567 3.25716,1.74046 -1.0906,-0.50478 -2.17231,-1.14665 -3.25716,-1.74046 z m -102.744635,0.33435 c 0.951079,0.50537 1.899122,1.0579 2.854606,1.495 -0.955498,-0.43708 -1.903513,-0.98963 -2.854606,-1.495 z m 108.976805,2.57555 c 1.0883,0.42131 2.17355,0.88865 3.26751,1.22215 -1.094,-0.33348 -2.17917,-0.80085 -3.26751,-1.22215 z m -102.750311,0.23306 c 0.956868,0.3557 1.910421,0.76367 2.871659,1.05162 -0.961238,-0.28792 -1.914791,-0.69595 -2.871659,-1.05162 z m 109.026421,1.70326 c 1.10029,0.25361 2.19771,0.54958 3.30367,0.715201 -1.10591,-0.1656 -2.20343,-0.46163 -3.30367,-0.715201 z m -102.736365,0.13901 c 0.959972,0.2066 1.916158,0.47158 2.880444,0.61133 -0.964226,-0.13973 -1.920531,-0.40477 -2.880444,-0.61133 z m 109.074475,0.83302 c 1.10982,0.0854 2.21713,0.21067 3.33262,0.20826 -1.11547,0.002 -2.2228,-0.1229 -3.33262,-0.20826 z m -102.681584,0.0465 c 0.949009,0.0577 1.893713,0.18052 2.846855,0.17415 -0.953141,0.006 -1.897846,-0.11647 -2.846855,-0.17415 z"
       sodipodi:nodetypes="scccccssccccscccccccccccccccccccccccc" />
    <path
       id="path4-8"
       style="fill:#0a9396;fill-opacity:1;stroke:none;stroke-width:0.264583;stroke-opacity:1"
       d="m 38.441346,57.709889 c 2.163506,0.96563 4.336926,2.08693 6.520533,3.36413 8.458287,5.35117 17.09321,7.96736 25.904362,7.84914 -2.036181,-0.96476 -4.062567,-2.08449 -6.078699,-3.36 -8.951003,-5.2355 -17.732967,-7.85327 -26.346196,-7.85327 z m 103.358544,0 c 2.16351,0.96563 4.33693,2.08693 6.52054,3.36413 8.45829,5.35117 17.09321,7.96736 25.90436,7.84914 -2.03618,-0.96476 -4.06257,-2.08449 -6.0787,-3.36 -8.951,-5.2355 -17.73297,-7.85327 -26.3462,-7.85327 z"
       sodipodi:nodetypes="cccccccccc" />
    <path
       id="path4"
       style="fill:#005f73;fill-opacity:1;stroke:none;stroke-width:0.264583;stroke-opacity:1"
       d="M 200,100 V 61.073919 c -17.902,10.47098 -35.12845,10.47098 -51.67936,0 -17.90199,-10.47098 -35.12845,-10.47098 -51.67935,0 -17.901999,10.47098 -35.128452,10.47098 -51.679357,0 C 29.468633,52.011801 14.481322,50.7925 0,57.416017 V 100"
       sodipodi:nodetypes="ccccccc" />
  </g>
</svg>
